Results
version=1
nRows=22
nColumns=24
inDegrees=yes
endheader
time	pelvis_tilt	pelvis_list	pelvis_rotation	pelvis_tx	pelvis_ty	pelvis_tz	hip_flexion_r	hip_adduction_r	hip_rotation_r	knee_angle_r	ankle_angle_r	subtalar_angle_r	mtp_angle_r	hip_flexion_l	hip_adduction_l	hip_rotation_l	knee_angle_l	ankle_angle_l	subtalar_angle_l	mtp_angle_l	lumbar_extension	lumbar_bending	lumbar_rotation
      0.52500000	     -6.93143851	      2.36628072	      7.12976830	     -0.78674157	      1.01540962	      0.31311001	     29.48457977	     -1.43272442	    -14.74659063	     -0.44455548	      5.24922636	     10.21278463	     13.97204355	     -6.35070621	      7.48059347	      6.71919515	     -8.63850336	      8.40574870	     -0.55829104	      2.63873529	      0.48028265	     -6.35251881	     -6.46822582
      0.52916667	     -6.88974641	      2.34836311	      7.16838700	     -0.78074391	      1.01491402	      0.31318515	     29.40430834	     -1.31269111	    -14.63708609	     -0.70298871	      5.41490909	     10.02209190	     13.98736811	     -6.44294316	      7.43118330	      6.80172486	     -9.26426195	      8.49362645	     -0.54304748	      2.65668111	      0.50783490	     -6.33492660	     -6.43177445
      0.53333333	     -6.88156768	      2.33319051	      7.20614264	     -0.77472495	      1.01437396	      0.31327732	     29.32787596	     -1.18963553	    -14.32381255	     -0.94752513	      5.42903610	      9.52077917	     14.03894077	     -6.46067771	      7.38747232	      6.81772986	     -9.96919624	      8.57578509	     -0.41542870	      2.72713049	      0.57291222	     -6.34313942	     -6.41460320
      0.53750000	     -6.83834735	      2.30924281	      7.23388447	     -0.76867215	      1.01389334	      0.31334697	     29.23398504	     -1.06191983	    -14.04339802	     -1.28264202	      5.37292917	      8.97278215	     14.12287132	     -6.50886659	      7.33594141	      6.83558731	    -10.68369509	      8.59039659	     -0.37947666	      2.84452333	      0.60195075	     -6.31600925	     -6.40604022
      0.54166667	     -6.77698789	      2.28197070	      7.26576911	     -0.76258187	      1.01346695	      0.31338871	     29.11285259	     -0.93547376	    -13.71943612	     -1.65001707	      5.27242690	      8.35798650	     14.23818038	     -6.56156087	      7.28279728	      6.87249621	    -11.42852008	      8.58382371	     -0.35969739	      3.01006617	      0.61170243	     -6.27735826	     -6.40121123
      0.54583333	     -6.73156530	      2.25117464	      7.29148855	     -0.75646712	      1.01301261	      0.31342544	     29.01408560	     -0.80903347	    -13.36138174	     -2.06097911	      5.10413700	      7.67392789	     14.36531744	     -6.57674698	      7.23222114	      6.89980167	    -12.21457046	      8.54881658	     -0.34742631	      3.20336096	      0.65482194	     -6.23785593	     -6.39487422
      0.55000000	     -6.66959175	      2.22146596	      7.31500309	     -0.75032440	      1.01259732	      0.31345812	     28.89331351	     -0.68301723	    -12.96546317	     -2.49073516	      4.85175375	      6.90648362	     14.51266804	     -6.58586655	      7.18169430	      6.89632651	    -13.04403309	      8.47078689	     -0.33331780	      3.44245546	      0.67286345	     -6.19338980	     -6.38711774
      0.55416667	     -6.60790312	      2.18347053	      7.34452970	     -0.74415322	      1.01220457	      0.31346265	     28.77036257	     -0.55532858	    -12.55515181	     -2.94215397	      4.57173925	      6.10092835	     14.64553554	     -6.57355041	      7.12561272	      6.90415722	    -13.91300815	      8.38336423	     -0.31600530	      3.67348678	      0.69284519	     -6.12865265	     -6.37899425
      0.55833333	     -6.53971972	      2.13969220	      7.35758753	     -0.73793736	      1.01182851	      0.31349577	     28.64140832	     -0.41496292	    -12.14160544	     -3.40310338	      4.15749600	      5.23882726	     14.77900072	     -6.54821970	      7.05932598	      6.83873605	    -14.81485578	      8.21380904	     -0.28086171	      3.92760117	      0.72561041	     -6.05941353	     -6.36402844
      0.56250000	     -6.45535635	      2.08987871	      7.36862322	     -0.73170349	      1.01149685	      0.31352563	     28.48844546	     -0.26637873	    -11.69079075	     -3.86190415	      3.67226442	      4.32349813	     14.92833412	     -6.50971152	      6.98343155	      6.73436378	    -15.76489456	      8.02351774	     -0.21214181	      4.23890649	      0.73275111	     -5.97840257	     -6.34123537
      0.56666667	     -6.36860562	      2.03099040	      7.38961166	     -0.72544396	      1.01118474	      0.31354923	     28.34246860	     -0.12061606	    -11.32122663	     -4.34572002	      3.12444499	      3.44935961	     16.96011041	     -6.43935636	      6.88533022	      6.56094842	    -16.76803644	      7.74511984	     -0.06317094	      8.67647691	      0.74803226	     -5.88384042	     -6.22750739
      0.57083333	     -6.29299902	      1.99501404	      7.38972840	     -0.71918761	      1.01087469	      0.31359760	     28.20549227	      0.01289491	    -10.85143113	     -4.83213867	      2.53487510	      2.50165000	     16.96164234	     -6.35303950	      6.82766483	      6.45179901	    -17.78565928	      7.42783793	     -0.08539210	      8.75923791	      0.76342252	     -5.82341483	     -6.28406658
      0.57500000	     -6.19658326	      1.94251027	      7.39491781	     -0.71290635	      1.01063423	      0.31365621	     28.04136065	      0.16170836	    -10.41422710	     -5.31015158	      1.88574650	      1.55284310	     16.97820821	     -6.24691027	      6.73337733	      6.23870904	    -18.86258605	      7.09740747	      0.04850345	      8.92529001	      0.76367839	     -5.73338505	     -6.24441699
      0.57916667	     -6.10884661	      1.88826163	      7.39889630	     -0.70662149	      1.01039691	      0.31372510	     27.89050081	      0.30865839	     -9.98732582	     -5.79783953	      1.21035705	      0.62031516	     17.00526106	     -6.10447827	      6.63248384	      6.00023980	    -19.98305744	      6.71811421	      0.20223485	      9.17448193	      0.77673398	     -5.64570110	     -6.20177880
      0.58333333	     -6.01609246	      1.82117418	      7.39926405	     -0.70032328	      1.01019902	      0.31380722	     27.73539518	      0.46701644	     -9.58046653	     -6.28830015	      0.50555554	     -0.28705504	     17.03741507	     -5.93420575	      6.50569785	      5.69768034	    -21.14754519	      6.25794190	      0.39038269	      9.50232797	      0.78711332	     -5.53829473	     -6.15306967
      0.58750000	     -5.93993938	      1.75810906	      7.39936317	     -0.69404235	      1.00998312	      0.31391377	     27.60860232	      0.61682001	     -9.18634846	     -6.80222405	     -0.19070512	     -1.16749695	     17.07340438	     -5.71105824	      6.37336471	      5.34960251	    -22.36519121	      5.77362512	      0.62782962	      9.93243820	      0.81689374	     -5.44588308	     -6.09737807
      0.59166667	     -5.79595544	      1.67159700	      7.40766177	     -0.68772974	      1.00994717	      0.31401100	     27.40290634	      0.78558410	     -8.88559340	     -7.30674553	     -0.86155091	     -1.91069534	     17.52409874	     -5.54428250	      6.19075361	      4.98292879	    -23.57188426	      5.02133066	      0.79511659	     15.24991283	      0.76575203	     -5.29126466	     -5.96834841
      0.59583333	     -5.75137275	      1.61525746	      7.40426174	     -0.68147821	      1.00975787	      0.31416508	     27.32676546	      0.91690958	     -8.53218561	     -7.86382470	     -1.50044925	     -2.64406174	     17.50508732	     -5.22298465	      6.04352819	      4.55865036	    -24.87020692	      4.39338343	      1.06703518	     15.34430464	      0.83050293	     -5.22719715	     -5.99474856
      0.60000000	     -5.61946072	      1.52408874	      7.40312274	     -0.67521036	      1.00975587	      0.31432429	     27.14483518	      1.09014483	     -8.22440106	     -8.39375855	     -2.13251309	     -3.36500165	     17.47758299	     -4.96792727	      5.82726793	      4.09058523	    -26.19128300	      3.69403012	      1.39029320	     15.53048448	      0.78855482	     -5.08773898	     -5.92770250
      0.60416667	     -5.54907679	      1.43690100	      7.41187825	     -0.66898264	      1.00968588	      0.31449714	     27.04516391	      1.24290885	     -7.94267934	     -8.96488165	     -2.69265225	     -4.02646434	     17.43786353	     -4.61132857	      5.60966183	      3.61982261	    -27.56182270	      2.90498907	      1.69812975	     15.81777384	      0.82001408	     -4.97527693	     -5.86257482
      0.60833333	     -5.44320417	      1.34273955	      7.41570110	     -0.66277382	      1.00971020	      0.31469881	     26.90682229	      1.40654748	     -7.68158934	     -9.53708215	     -3.20191380	     -4.62613773	     17.38222238	     -4.26202714	      5.36052142	      3.11237979	    -28.95918295	      2.05624959	      2.03680410	     16.18267630	      0.80281702	     -4.84226429	     -5.79427549
      0.61250000	     -5.31546108	      1.23960858	      7.43057619	     -0.65658771	      1.00981344	      0.31490141	     26.74870648	      1.57139489	     -7.47611424	    -10.12619788	     -3.59521746	     -5.11389115	     16.63387317	     -3.91106530	      5.08088611	      2.60686392	    -30.36014196	      0.96161782	      2.27605393	     21.22978122	      0.75832129	     -4.70139622	     -5.69927085
